<svg width="55" height="77" viewBox="0 0 55 77" fill="none" xmlns="http://www.w3.org/2000/svg">
<path fill-rule="evenodd" clip-rule="evenodd" d="M30.4431 34.6386L30.703 34.1559C33.3391 35.6906 39.4431 39.3762 42.7698 41.8416C42.745 43.9208 42.5247 49.401 41.8416 54.6881C41.5322 57.3243 40.2599 63.8589 37.646 68.9084C39.1435 66.9158 42.4876 61.3713 43.8836 55.1337C44.3663 53.3639 45.4653 48.0495 46 40.9505C43.1534 39.3045 36.1683 35.5223 31 33.5619L31.3713 32.7822C35.1955 33.8342 44.1287 36.5025 49.2673 38.7599C49.1559 41.4332 48.495 48.4505 46.7426 55.1337C45.8371 58.5866 43.3416 67.4753 36.2723 76C36.3697 75.8994 36.4882 75.78 36.6273 75.6398C38.1308 74.1248 42.0302 70.1956 47.5223 61.6312C50.2698 56.5446 52.0891 50.6782 54.3911 36.7178C48.9703 34.9728 41.5817 33.0421 31.594 32.0025L31.8911 31.4084C35.6039 31.2104 44.2772 31.0743 49.2673 32.1139C49.8366 28.3144 49.6312 19.4975 45.146 14.6262C46.1361 17.3366 47.9827 24.0569 46.5569 29.255C42.9307 29.2302 34.9431 29.3812 32.0025 30.1832L31.5198 29.552C33.698 28.2525 38.6708 25.5421 41.1361 25.0965C41.1442 25.0372 41.1523 24.9774 41.1605 24.9172C41.8684 19.7099 42.9799 11.5342 35.4554 1C37.2747 4.75 40.2153 13.802 38.3143 23.2772L30.9257 28.6609L30.3688 27.8812L32.6336 25.5421C32.2252 24.8738 31.0074 23.3812 29.4035 22.7574C30.1708 23.6733 31.2079 25.698 29.2178 26.4703H26.2846C25.4307 26.2475 24.198 25.1931 26.099 22.7574C25.3193 23.1163 23.604 24.1757 22.9802 25.5421L24.6881 27.5842L24.3168 28.3267L17.1881 23.3144C16.3465 19.6881 15.6584 10.1559 19.6386 1.03713C19.3184 1.62679 19.0101 2.18896 18.7142 2.72871C14.6868 10.0738 12.9356 13.2678 14.1807 25.0965C15.5792 25.3936 19.3639 26.6856 23.3144 29.4777L23.0916 29.9604C19.7005 29.6386 12.0941 29.0619 8.79702 29.3292C8.22772 26.6807 7.70544 20.0322 10.1708 14.6262C6.27228 20.1213 5.49257 24.1312 6.16089 32.2252C8.9703 31.6807 16.2896 30.755 23.0916 31.4084L23.3144 32.0025C18.3144 32.6337 6.85148 34.4604 1 36.7178C1.16384 37.5953 1.3229 38.4557 1.47882 39.2991C2.91289 47.0566 4.0818 53.3797 6.27228 58.3639C9.98538 65.5044 13.156 69.1728 17.0129 73.6354C17.6683 74.3937 18.3435 75.1749 19.0446 76C13.0668 67.7203 6.87376 57.3243 6.16089 38.7599C10.0965 37.1881 19.1931 33.7921 24.0941 32.7822L24.4282 33.5619C20.4183 35.2574 11.7673 39.0941 9.5396 40.8762C9.56418 41.2066 9.58838 41.5383 9.61269 41.8715C10.1759 49.5913 10.7984 58.1239 17.5965 68.9084C15.4802 64.2673 13.0891 58.9802 12.5842 41.8416C15.5173 39.8738 22.0446 35.5817 24.6881 34.1559L24.9851 34.6386C23.6485 35.4926 20.5446 37.6386 18.8218 39.3911C18.7104 40.1089 18.5545 42.7847 18.8218 47.745C20.0965 50.0594 23.6559 55.0668 27.6955 56.5817C29.7624 55.7401 34.4084 52.7946 36.4579 47.745C36.6188 46.5569 36.9035 43.2376 36.7549 39.4653C35.5173 38.3391 32.5223 35.797 30.4431 34.6386ZM23.76 36.5693L23.7446 36.582C22.9567 37.2323 21.1704 38.7067 20.3442 39.651C20.3566 41.198 20.4704 44.7302 20.6784 46.3341C21.6066 48.1658 24.4061 52.2079 27.7328 53.7227C29.4407 52.8316 33.4061 49.9876 34.713 46.3341C34.7198 46.2627 34.7272 46.1848 34.7352 46.1008C34.8594 44.8017 35.1214 42.0593 35.1214 39.7995C34.3912 39.0198 32.7006 37.2821 31.7798 36.5693C32.2378 37.1633 33.317 38.6411 33.9704 39.7995C34.0323 40.5297 33.9916 42.3384 33.7477 43.8836C33.5249 45.2945 31.6313 49.193 27.7328 50.8267C25.9878 50.1071 22.4086 47.711 21.7551 43.8836C21.6437 43.3638 21.4432 41.9307 21.5323 39.9109C21.9245 39.3095 22.6113 38.2847 23.1648 37.4587C23.3973 37.1118 23.6063 36.7999 23.76 36.5693Z" fill="#EDF1F7"/>
<path d="M30.703 34.1559L30.8287 33.9399L30.6054 33.8099L30.4828 34.0374L30.703 34.1559ZM30.4431 34.6386L30.2229 34.5201L30.1061 34.7371L30.3214 34.857L30.4431 34.6386ZM42.7698 41.8416L43.0198 41.8446L43.0213 41.7168L42.9186 41.6407L42.7698 41.8416ZM41.8416 54.6881L41.5936 54.6561L41.5933 54.659L41.8416 54.6881ZM37.646 68.9084L37.424 68.7935L37.8459 69.0586L37.646 68.9084ZM43.8836 55.1337L43.6422 55.0678L43.6397 55.0791L43.8836 55.1337ZM46 40.9505L46.2493 40.9693L46.2611 40.8127L46.1251 40.7341L46 40.9505ZM31 33.5619L30.7743 33.4544L30.6576 33.6994L30.9113 33.7956L31 33.5619ZM31.3713 32.7822L31.4376 32.5411L31.2356 32.4856L31.1456 32.6747L31.3713 32.7822ZM49.2673 38.7599L49.5171 38.7703L49.5242 38.5997L49.3679 38.531L49.2673 38.7599ZM46.7426 55.1337L46.5007 55.0703L46.7426 55.1337ZM36.2723 76L36.0798 75.8404L36.4518 76.1739L36.2723 76ZM36.6273 75.6398L36.4498 75.4637H36.4498L36.6273 75.6398ZM47.5223 61.6312L47.7327 61.7661L47.7378 61.7582L47.7422 61.75L47.5223 61.6312ZM54.3911 36.7178L54.6377 36.7585L54.6728 36.5459L54.4677 36.4799L54.3911 36.7178ZM31.594 32.0025L31.3704 31.8907L31.2089 32.2137L31.5682 32.2511L31.594 32.0025ZM31.8911 31.4084L31.8778 31.1588L31.7325 31.1665L31.6675 31.2966L31.8911 31.4084ZM49.2673 32.1139L49.2163 32.3586L49.4753 32.4126L49.5145 32.1509L49.2673 32.1139ZM45.146 14.6262L45.3299 14.4569L44.9112 14.712L45.146 14.6262ZM46.5569 29.255L46.5552 29.5049L46.7472 29.5063L46.798 29.3211L46.5569 29.255ZM32.0025 30.1832L31.8039 30.335L31.906 30.4686L32.0682 30.4244L32.0025 30.1832ZM31.5198 29.552L31.3917 29.3373L31.1508 29.481L31.3212 29.7038L31.5198 29.552ZM41.1361 25.0965L41.1806 25.3426L41.3594 25.3102L41.3839 25.1302L41.1361 25.0965ZM41.1605 24.9172L41.4082 24.9509L41.1605 24.9172ZM35.4554 1L35.6589 0.85469L35.2305 1.10912L35.4554 1ZM38.3143 23.2772L38.4616 23.4793L38.5403 23.4219L38.5595 23.3264L38.3143 23.2772ZM30.9257 28.6609L30.7223 28.8062L30.869 29.0116L31.073 28.8629L30.9257 28.6609ZM30.3688 27.8812L30.1892 27.7073L30.0443 27.857L30.1654 28.0265L30.3688 27.8812ZM32.6336 25.5421L32.8133 25.716L32.9479 25.5769L32.847 25.4117L32.6336 25.5421ZM29.4035 22.7574L29.4941 22.5244L29.2118 22.918L29.4035 22.7574ZM29.2178 26.4703V26.7203H29.2646L29.3083 26.7034L29.2178 26.4703ZM26.2846 26.4703L26.2215 26.7122L26.2526 26.7203H26.2846V26.4703ZM26.099 22.7574L26.2961 22.9112L25.9945 22.5303L26.099 22.7574ZM22.9802 25.5421L22.7528 25.4383L22.6873 25.5816L22.7884 25.7025L22.9802 25.5421ZM24.6881 27.5842L24.9117 27.696L24.985 27.5494L24.8799 27.4238L24.6881 27.5842ZM24.3168 28.3267L24.173 28.5312L24.4106 28.6983L24.5404 28.4385L24.3168 28.3267ZM17.1881 23.3144L16.9446 23.3709L16.9662 23.4639L17.0443 23.5189L17.1881 23.3144ZM19.6386 1.03713L19.8677 1.13714L19.4189 0.917814L19.6386 1.03713ZM18.7142 2.72871L18.495 2.60851L18.495 2.60851L18.7142 2.72871ZM14.1807 25.0965L13.9321 25.1227L13.9511 25.3033L14.1288 25.3411L14.1807 25.0965ZM23.3144 29.4777L23.5413 29.5825L23.6285 29.3936L23.4586 29.2736L23.3144 29.4777ZM23.0916 29.9604L23.068 30.2093L23.2443 30.226L23.3186 30.0652L23.0916 29.9604ZM8.79702 29.3292L8.55261 29.3817L8.59868 29.5961L8.81723 29.5784L8.79702 29.3292ZM10.1708 14.6262L10.3982 14.73L9.96689 14.4816L10.1708 14.6262ZM6.16089 32.2252L5.91174 32.2458L5.93469 32.5237L6.20846 32.4707L6.16089 32.2252ZM23.0916 31.4084L23.3257 31.3206L23.2709 31.1745L23.1155 31.1596L23.0916 31.4084ZM23.3144 32.0025L23.3457 32.2505L23.6595 32.2109L23.5484 31.9147L23.3144 32.0025ZM1 36.7178L0.910017 36.4846L0.716096 36.5594L0.754247 36.7637L1 36.7178ZM1.47882 39.2991L1.72465 39.2537L1.47882 39.2991ZM6.27228 58.3639L6.04341 58.4644L6.0467 58.4719L6.05047 58.4792L6.27228 58.3639ZM17.0129 73.6354L16.8237 73.7988L17.0129 73.6354ZM19.0446 76L18.854 76.1619L19.2472 75.8537L19.0446 76ZM6.16089 38.7599L6.06817 38.5277L5.9043 38.5932L5.91107 38.7695L6.16089 38.7599ZM24.0941 32.7822L24.3238 32.6837L24.2435 32.4961L24.0436 32.5373L24.0941 32.7822ZM24.4282 33.5619L24.5256 33.7921L24.757 33.6943L24.658 33.4634L24.4282 33.5619ZM9.5396 40.8762L9.38343 40.681L9.28051 40.7634L9.29029 40.8948L9.5396 40.8762ZM9.61269 41.8715L9.36336 41.8897V41.8897L9.61269 41.8715ZM17.5965 68.9084L17.385 69.0417L17.824 68.8047L17.5965 68.9084ZM12.5842 41.8416L12.4449 41.634L12.3302 41.7109L12.3343 41.8489L12.5842 41.8416ZM24.6881 34.1559L24.901 34.0249L24.7773 33.8238L24.5694 33.9359L24.6881 34.1559ZM24.9851 34.6386L25.1197 34.8493L25.3269 34.7169L25.1981 34.5076L24.9851 34.6386ZM18.8218 39.3911L18.6435 39.2158L18.5871 39.2732L18.5747 39.3528L18.8218 39.3911ZM18.8218 47.745L18.5721 47.7585L18.5752 47.8156L18.6028 47.8657L18.8218 47.745ZM27.6955 56.5817L27.6078 56.8158L27.6993 56.8501L27.7898 56.8132L27.6955 56.5817ZM36.4579 47.745L36.6896 47.8391L36.7014 47.8098L36.7057 47.7786L36.4579 47.745ZM36.7549 39.4653L37.0048 39.4555L37.0006 39.3509L36.9232 39.2804L36.7549 39.4653ZM23.7446 36.582L23.5854 36.3892L23.5854 36.3892L23.7446 36.582ZM23.76 36.5693L23.9681 36.7079L23.6009 36.3765L23.76 36.5693ZM20.3442 39.651L20.1561 39.4863L20.0934 39.5579L20.0942 39.653L20.3442 39.651ZM20.6784 46.3341L20.4304 46.3663L20.4359 46.4088L20.4554 46.4471L20.6784 46.3341ZM27.7328 53.7227L27.6292 53.9503L27.7403 54.0008L27.8485 53.9444L27.7328 53.7227ZM34.713 46.3341L34.9484 46.4183L34.9589 46.3889L34.9619 46.3577L34.713 46.3341ZM34.7352 46.1008L34.9841 46.1245L34.7352 46.1008ZM35.1214 39.7995H35.3714V39.7007L35.3039 39.6286L35.1214 39.7995ZM31.7798 36.5693L31.9329 36.3716L31.5818 36.7219L31.7798 36.5693ZM33.9704 39.7995L34.2195 39.7784L34.2149 39.7241L34.1882 39.6766L33.9704 39.7995ZM33.7477 43.8836L33.5007 43.8446L33.7477 43.8836ZM27.7328 50.8267L27.6375 51.0578L27.7336 51.0974L27.8294 51.0573L27.7328 50.8267ZM21.7551 43.8836L22.0017 43.8415L21.9995 43.8312L21.7551 43.8836ZM21.5323 39.9109L21.3229 39.7743L21.2856 39.8315L21.2826 39.8998L21.5323 39.9109ZM23.1648 37.4587L22.9571 37.3195V37.3195L23.1648 37.4587ZM30.4828 34.0374L30.2229 34.5201L30.6632 34.7571L30.9231 34.2745L30.4828 34.0374ZM42.9186 41.6407C39.5796 39.1662 33.4647 35.4744 30.8287 33.9399L30.5772 34.372C33.2135 35.9067 39.3065 39.5862 42.6209 42.0424L42.9186 41.6407ZM42.0895 54.7202C42.7742 49.421 42.9949 43.9308 43.0198 41.8446L42.5198 41.8386C42.4951 43.9108 42.2752 49.3809 41.5936 54.6561L42.0895 54.7202ZM37.868 69.0233C40.5013 63.9364 41.7787 57.3686 42.0899 54.7173L41.5933 54.659C41.2856 57.28 40.0185 63.7814 37.424 68.7935L37.868 69.0233ZM43.6397 55.0791C42.2533 61.2733 38.9285 66.7859 37.4462 68.7582L37.8459 69.0586C39.3586 67.0458 42.7219 61.4693 44.1276 55.1883L43.6397 55.0791ZM45.7507 40.9317C45.217 48.0174 44.1203 53.3157 43.6425 55.0679L44.1248 55.1994C44.6123 53.412 45.7136 48.0816 46.2493 40.9693L45.7507 40.9317ZM30.9113 33.7956C36.0601 35.7486 43.031 39.5224 45.8748 41.1669L46.1251 40.7341C43.2759 39.0865 36.2765 35.296 31.0886 33.3281L30.9113 33.7956ZM31.1456 32.6747L30.7743 33.4544L31.2257 33.6694L31.597 32.8897L31.1456 32.6747ZM49.3679 38.531C44.211 36.2656 35.2621 33.5932 31.4376 32.5411L31.305 33.0232C35.1289 34.0751 44.0464 36.7394 49.1668 38.9888L49.3679 38.531ZM46.9844 55.1971C48.7425 48.4924 49.4052 41.4566 49.5171 38.7703L49.0175 38.7495C48.9067 41.4097 48.2476 48.4086 46.5007 55.0703L46.9844 55.1971ZM36.4647 76.1596C43.5691 67.5925 46.076 58.6614 46.9844 55.1971L46.5007 55.0703C45.5983 58.5119 43.114 67.358 36.0798 75.8404L36.4647 76.1596ZM36.4498 75.4637C36.3112 75.6035 36.1914 75.7242 36.0927 75.8261L36.4518 76.1739C36.548 76.0747 36.6653 75.9564 36.8047 75.8159L36.4498 75.4637ZM47.3118 61.4962C41.8316 70.0422 37.9444 73.9577 36.4498 75.4637L36.8047 75.8159C38.3172 74.2919 42.2288 70.349 47.7327 61.7661L47.3118 61.4962ZM54.1444 36.6772C51.8435 50.6312 50.0294 56.4636 47.3023 61.5124L47.7422 61.75C50.5102 56.6255 52.3347 50.7252 54.6377 36.7585L54.1444 36.6772ZM31.5682 32.2511C41.5356 33.2886 48.9071 35.2151 54.3145 36.9558L54.4677 36.4799C49.0334 34.7305 41.6277 32.7955 31.6199 31.7538L31.5682 32.2511ZM31.6675 31.2966L31.3704 31.8907L31.8177 32.1143L32.1147 31.5202L31.6675 31.2966ZM49.3183 31.8691C44.293 30.8222 35.5902 30.9608 31.8778 31.1588L31.9044 31.6581C35.6177 31.46 44.2615 31.3263 49.2163 32.3586L49.3183 31.8691ZM44.9621 14.7956C47.1578 17.1803 48.3183 20.5474 48.8554 23.8125C49.392 27.0747 49.3009 30.2026 49.0201 32.0768L49.5145 32.1509C49.803 30.2256 49.8939 27.0454 49.3488 23.7314C48.8042 20.4204 47.6194 16.9435 45.3299 14.4569L44.9621 14.7956ZM46.798 29.3211C47.5241 26.6739 47.4142 23.6546 47.0046 20.97C46.5945 18.2822 45.8806 15.9084 45.3809 14.5405L44.9112 14.712C45.4016 16.0545 46.106 18.396 46.5103 21.0454C46.915 23.6981 47.0155 26.638 46.3158 29.1888L46.798 29.3211ZM32.0682 30.4244C33.5079 30.0317 36.2126 29.7938 39.0345 29.6587C41.8469 29.5241 44.7457 29.4926 46.5552 29.5049L46.5586 29.005C44.7419 28.9926 41.8338 29.0242 39.0106 29.1593C36.197 29.294 33.4377 29.5326 31.9367 29.942L32.0682 30.4244ZM31.3212 29.7038L31.8039 30.335L32.201 30.0313L31.7184 29.4001L31.3212 29.7038ZM41.0917 24.8505C39.8204 25.0803 37.932 25.8847 36.1101 26.7796C34.2794 27.6788 32.4856 28.6847 31.3917 29.3373L31.6479 29.7667C32.7322 29.1198 34.5139 28.1207 36.3305 27.2284C38.1558 26.3319 39.9865 25.5583 41.1806 25.3426L41.0917 24.8505ZM40.9128 24.8836C40.9046 24.9437 40.8965 25.0035 40.8884 25.0629L41.3839 25.1302C41.3919 25.0708 41.4 25.0111 41.4082 24.9509L40.9128 24.8836ZM35.252 1.14531C38.9917 6.38082 40.5793 11.0208 41.1476 14.9916C41.7164 18.9656 41.2666 22.2808 40.9128 24.8836L41.4082 24.9509C41.7623 22.3464 42.2222 18.9701 41.6426 14.9208C41.0626 10.8684 39.4437 6.15342 35.6589 0.85469L35.252 1.14531ZM38.5595 23.3264C40.4748 13.7798 37.5142 4.67076 35.6804 0.890877L35.2305 1.10912C37.0353 4.82924 39.9559 13.8241 38.0692 23.2281L38.5595 23.3264ZM31.073 28.8629L38.4616 23.4793L38.1671 23.0752L30.7785 28.4588L31.073 28.8629ZM30.1654 28.0265L30.7223 28.8062L31.1292 28.5156L30.5722 27.7359L30.1654 28.0265ZM32.454 25.3682L30.1892 27.7073L30.5484 28.0551L32.8133 25.716L32.454 25.3682ZM29.3128 22.9904C30.8454 23.5864 32.0265 25.0279 32.4203 25.6724L32.847 25.4117C32.424 24.7196 31.1694 23.176 29.4941 22.5244L29.3128 22.9904ZM29.3083 26.7034C29.8482 26.4938 30.209 26.1882 30.4137 25.8129C30.6173 25.4398 30.6507 25.0271 30.592 24.631C30.4759 23.8492 29.993 23.0719 29.5951 22.5969L29.2118 22.918C29.5812 23.3588 30.0005 24.0518 30.0974 24.7044C30.145 25.0255 30.1125 25.3211 29.9748 25.5734C29.8383 25.8236 29.5824 26.0606 29.1274 26.2372L29.3083 26.7034ZM26.2846 26.7203H29.2178V26.2203H26.2846V26.7203ZM25.9019 22.6036C24.9311 23.8475 24.7079 24.805 24.9191 25.515C25.1297 26.223 25.7431 26.5874 26.2215 26.7122L26.3477 26.2284C25.9723 26.1304 25.5423 25.8562 25.3983 25.3724C25.255 24.8906 25.3659 24.103 26.2961 22.9112L25.9019 22.6036ZM23.2076 25.6459C23.496 25.0142 24.0463 24.4371 24.6367 23.9676C25.2244 23.5003 25.8309 23.1561 26.2035 22.9845L25.9945 22.5303C25.5874 22.7177 24.9463 23.0826 24.3255 23.5763C23.7074 24.0678 23.0881 24.7037 22.7528 25.4383L23.2076 25.6459ZM24.8799 27.4238L23.172 25.3817L22.7884 25.7025L24.4963 27.7445L24.8799 27.4238ZM24.5404 28.4385L24.9117 27.696L24.4645 27.4724L24.0932 28.2149L24.5404 28.4385ZM17.0443 23.5189L24.173 28.5312L24.4606 28.1222L17.3319 23.1098L17.0443 23.5189ZM19.4095 0.93712C15.4029 10.1163 16.0939 19.7054 16.9446 23.3709L17.4316 23.2578C16.5992 19.6708 15.9139 10.1956 19.8677 1.13714L19.4095 0.93712ZM18.9334 2.8489C19.2293 2.3092 19.5378 1.74661 19.8583 1.15644L19.4189 0.917814C19.0989 1.50697 18.7909 2.06871 18.495 2.60851L18.9334 2.8489ZM14.4293 25.0704C13.8081 19.1684 13.9374 15.4457 14.713 12.2909C15.4894 9.13306 16.9166 6.52715 18.9334 2.8489L18.495 2.60851C16.4844 6.27534 15.0223 8.93895 14.2275 12.1715C13.4319 15.4072 13.3082 19.1959 13.9321 25.1227L14.4293 25.0704ZM23.4586 29.2736C19.4809 26.4622 15.6649 25.1562 14.2326 24.852L14.1288 25.3411C15.4935 25.6309 19.2469 26.9091 23.1701 29.6819L23.4586 29.2736ZM23.3186 30.0652L23.5413 29.5825L23.0874 29.373L22.8646 29.8556L23.3186 30.0652ZM8.81723 29.5784C12.088 29.3132 19.671 29.8869 23.068 30.2093L23.1152 29.7115C19.73 29.3903 12.1001 28.8106 8.77682 29.08L8.81723 29.5784ZM9.94332 14.5225C7.44676 19.9969 7.97755 26.7065 8.55261 29.3817L9.04144 29.2767C8.47788 26.6549 7.96412 20.0675 10.3982 14.73L9.94332 14.5225ZM6.41004 32.2047C6.07659 28.1662 6.10677 25.1697 6.69735 22.5052C7.28684 19.8456 8.43857 17.4999 10.3747 14.7709L9.96689 14.4816C8.00449 17.2476 6.81711 19.6543 6.2092 22.397C5.60239 25.1347 5.57687 28.1902 5.91174 32.2458L6.41004 32.2047ZM23.1155 31.1596C16.2823 30.5031 8.93771 31.4324 6.11332 31.9798L6.20846 32.4707C9.00288 31.929 16.2969 31.0068 23.0677 31.6573L23.1155 31.1596ZM23.5484 31.9147L23.3257 31.3206L22.8575 31.4962L23.0803 32.0903L23.5484 31.9147ZM1.08998 36.9511C6.90915 34.7061 18.343 32.882 23.3457 32.2505L23.283 31.7544C18.2857 32.3853 6.79382 34.2147 0.910017 36.4846L1.08998 36.9511ZM1.72465 39.2537C1.56874 38.4103 1.40964 37.5497 1.24575 36.6719L0.754247 36.7637C0.918043 37.6409 1.07706 38.5011 1.23298 39.3446L1.72465 39.2537ZM6.50115 58.2633C4.32491 53.3115 3.16056 47.0211 1.72465 39.2537L1.23298 39.3446C2.66523 47.0922 3.83869 53.4479 6.04341 58.4644L6.50115 58.2633ZM17.202 73.4719C13.3483 69.0131 10.1933 65.3625 6.49408 58.2485L6.05047 58.4792C9.77741 65.6464 12.9636 69.3326 16.8237 73.7988L17.202 73.4719ZM19.2351 75.8381C18.5332 75.0121 17.8573 74.2301 17.202 73.4719L16.8237 73.7988C17.4792 74.5572 18.1538 75.3377 18.854 76.1619L19.2351 75.8381ZM5.91107 38.7695C6.62644 57.3988 12.8461 67.8417 18.8419 76.1463L19.2472 75.8537C13.2876 67.5989 7.12108 57.2498 6.41071 38.7503L5.91107 38.7695ZM24.0436 32.5373C19.1176 33.5524 10.0013 36.957 6.06817 38.5277L6.25361 38.9921C10.1918 37.4193 19.2685 34.0318 24.1445 33.027L24.0436 32.5373ZM24.658 33.4634L24.3238 32.6837L23.8643 32.8807L24.1984 33.6604L24.658 33.4634ZM9.69578 41.0715C10.2332 40.6415 11.1736 40.0768 12.3601 39.4402C13.5419 38.8062 14.9533 38.1085 16.4226 37.4125C19.361 36.0206 22.5228 34.639 24.5256 33.7921L24.3309 33.3316C22.3238 34.1803 19.1551 35.5648 16.2086 36.9606C14.7354 37.6585 13.3157 38.3601 12.1237 38.9996C10.9362 39.6367 9.95985 40.2199 9.38343 40.681L9.69578 41.0715ZM9.86203 41.8533C9.83772 41.5201 9.81351 41.1882 9.78891 40.8577L9.29029 40.8948C9.31486 41.2249 9.33905 41.5564 9.36336 41.8897L9.86203 41.8533ZM17.808 68.7751C11.0441 58.0449 10.4246 49.5641 9.86203 41.8533L9.36336 41.8897C9.92722 49.6185 10.5527 58.203 17.385 69.0417L17.808 68.7751ZM12.3343 41.8489C12.587 50.4282 13.3121 56.052 14.2424 60.1173C15.1736 64.1868 16.3089 66.6873 17.3691 69.0121L17.824 68.8047C16.7678 66.4884 15.6494 64.0249 14.7298 60.0058C13.8092 55.9826 13.0862 50.3936 12.834 41.8342L12.3343 41.8489ZM24.5694 33.9359C21.9129 35.3686 15.3744 39.6686 12.4449 41.634L12.7234 42.0492C15.6602 40.079 22.1762 35.7947 24.8068 34.376L24.5694 33.9359ZM25.1981 34.5076L24.901 34.0249L24.4752 34.287L24.7722 34.7696L25.1981 34.5076ZM19.0001 39.5663C20.7017 37.8354 23.7851 35.702 25.1197 34.8493L24.8505 34.4279C23.5119 35.2832 20.3874 37.4419 18.6435 39.2158L19.0001 39.5663ZM19.0714 47.7316C18.8043 42.7744 18.9616 40.1203 19.0688 39.4294L18.5747 39.3528C18.4592 40.0975 18.3046 42.7949 18.5721 47.7585L19.0714 47.7316ZM27.7833 56.3476C25.8189 55.6109 23.9515 54.015 22.4078 52.2961C20.8674 50.5809 19.6697 48.7662 19.0408 47.6244L18.6028 47.8657C19.2486 49.0382 20.468 50.8845 22.0358 52.6302C23.6005 54.3724 25.5326 56.0376 27.6078 56.8158L27.7833 56.3476ZM36.2263 47.651C34.2103 52.6179 29.6291 55.5244 27.6013 56.3501L27.7898 56.8132C29.8957 55.9558 34.6065 52.9712 36.6896 47.8391L36.2263 47.651ZM36.5051 39.4752C36.6531 43.2321 36.3692 46.5369 36.2102 47.7115L36.7057 47.7786C36.8684 46.5769 37.1539 43.2431 37.0048 39.4555L36.5051 39.4752ZM30.3214 34.857C32.373 36 35.3494 38.5243 36.5867 39.6502L36.9232 39.2804C35.6852 38.1539 32.6716 35.594 30.5647 34.4202L30.3214 34.857ZM23.9037 36.7748L23.9192 36.7621L23.6009 36.3765L23.5854 36.3892L23.9037 36.7748ZM20.5323 39.8156C21.3419 38.8903 23.1087 37.431 23.9037 36.7748L23.5854 36.3892C22.8047 37.0336 20.9989 38.523 20.1561 39.4863L20.5323 39.8156ZM20.9263 46.302C20.7205 44.7145 20.6066 41.1958 20.5942 39.649L20.0942 39.653C20.1066 41.2002 20.2204 44.7458 20.4304 46.3663L20.9263 46.302ZM27.8364 53.4952C26.22 52.7592 24.7164 51.4003 23.4955 49.984C22.2763 48.5698 21.3559 47.1181 20.9014 46.2211L20.4554 46.4471C20.929 47.3818 21.8725 48.867 23.1168 50.3105C24.3594 51.7519 25.9189 53.1714 27.6292 53.9503L27.8364 53.4952ZM34.4776 46.2499C33.8428 48.0244 32.5558 49.6165 31.2026 50.8817C29.8506 52.1456 28.4507 53.0662 27.6172 53.5011L27.8485 53.9444C28.7228 53.4882 30.1596 52.5412 31.544 51.2469C32.9271 49.9539 34.2762 48.2973 34.9484 46.4183L34.4776 46.2499ZM34.4864 46.077C34.4784 46.1609 34.4709 46.239 34.4641 46.3105L34.9619 46.3577C34.9686 46.2864 34.9761 46.2086 34.9841 46.1245L34.4864 46.077ZM34.8714 39.7995C34.8714 42.0454 34.6107 44.7759 34.4864 46.077L34.9841 46.1245C35.1081 44.8275 35.3714 42.0732 35.3714 39.7995H34.8714ZM31.6268 36.767C32.5291 37.4655 34.2062 39.188 34.9389 39.9704L35.3039 39.6286C34.5762 38.8516 32.8722 37.0988 31.9329 36.3716L31.6268 36.767ZM34.1882 39.6766C33.5258 38.5024 32.4379 37.0135 31.9778 36.4166L31.5818 36.7219C32.0376 37.3132 33.1081 38.7797 33.7527 39.9223L34.1882 39.6766ZM33.9946 43.9226C34.2413 42.3605 34.2834 40.5314 34.2195 39.7784L33.7213 39.8206C33.7813 40.5279 33.742 42.3163 33.5007 43.8446L33.9946 43.9226ZM27.8294 51.0573C29.8309 50.2186 31.3125 48.801 32.3206 47.419C33.3248 46.0424 33.8753 44.6785 33.9946 43.9226L33.5007 43.8446C33.3973 44.4997 32.8896 45.7905 31.9167 47.1243C30.9477 48.4527 29.5333 49.8012 27.6362 50.5961L27.8294 51.0573ZM21.5087 43.9257C21.8469 45.9068 22.9405 47.5078 24.1599 48.6994C25.3785 49.8902 26.7368 50.6864 27.6375 51.0578L27.8281 50.5956C26.9837 50.2474 25.68 49.4858 24.5093 48.3418C23.3395 47.1986 22.3168 45.6879 22.0015 43.8416L21.5087 43.9257ZM21.2826 39.8998C21.1926 41.9391 21.3944 43.3937 21.5106 43.936L21.9995 43.8312C21.893 43.334 21.6938 41.9222 21.7821 39.9219L21.2826 39.8998ZM22.9571 37.3195C22.4041 38.1448 21.7162 39.1713 21.3229 39.7743L21.7417 40.0474C22.1328 39.4477 22.8185 38.4245 23.3725 37.5979L22.9571 37.3195ZM23.552 36.4306C23.3985 36.6609 23.1897 36.9725 22.9571 37.3195L23.3725 37.5979C23.6049 37.251 23.8141 36.9389 23.9681 36.7079L23.552 36.4306Z" fill="#EDF1F7"/>
</svg>
